# xmcd
#
# Track frame offsets:
#	150
#	18350
#	37393
#	55222
#	72059
#	85989
#	102594
#	122382
#	136470
#	153448
#	171882
#	187709
#	203282
#	218668
#	233501
#	253968
#	272802
#	290520
#	308984
#	323240
#
# Disc length: 4485 seconds
#
# Revision: 1
# Processed by: cddbd v1.5.2PL0 Copyright (c) Steve Scherf et al.
# Submitted via: audiograbber 1.83.01
#
DISCID=1c118314
DTITLE=Various Artist - eggman's Schlagersammlung Vol.1
DYEAR=2002
DGENRE=Schlager
TTITLE0=G.G.Anderson - Am weißen Strand von San Angelo
TTITLE1=G.G.Anderson - Unser Himmelbett....
TTITLE2=G.G.Anderson - Santa Lucia...
TTITLE3=G.G.Anderson - Ti amo Maria
TTITLE4=G.G.Anderson - Mädchen Mädchen
TTITLE5=G.G.Anderson - Die Sonne von St. Helena
TTITLE6=G.G.Anderson - Sommernacht in Rom
TTITLE7=G.G.Anderson - S.O.S - mein Herz verbrennt
TTITLE8=G.G.Anderson - Mona Lisa
TTITLE9=G.G.Anderson - Heimweh nach nach deinem Zimmer
TTITLE10=G.G.Anderson - Vergessen verloren
TTITLE11=Uwe Busse - Gloria
TTITLE12=Uwe Busse - Angela
TTITLE13=Tommy Steiner - So schön wirds nie wieder sein
TTITLE14=Tommy Steiner - Märchenland
TTITLE15=Tommy Steiner - Ich deck mich zu mit meinen Träumen
TTITLE16=Tommy Steiner - Eine Liebe ist vorbei
TTITLE17=Wind - Herz aus Stein
TTITLE18=Wind - Laß dieSonne in dein Herz
TTITLE19=Wind - Für alle
EXTD=
EXTT0=
EXTT1=
EXTT2=
EXTT3=
EXTT4=
EXTT5=
EXTT6=
EXTT7=
EXTT8=
EXTT9=
EXTT10=
EXTT11=
EXTT12=
EXTT13=
EXTT14=
EXTT15=
EXTT16=
EXTT17=
EXTT18=
EXTT19=
PLAYORDER=
